Coordinates
version=1
nRows=29
nColumns=24
inDegrees=yes

Units are S.I. units (second, meters, Newtons, ...)
Angles are in degrees.

endheader
time	pelvis_tilt	pelvis_list	pelvis_rotation	pelvis_tx	pelvis_ty	pelvis_tz	hip_flexion_r	hip_adduction_r	hip_rotation_r	knee_angle_r	ankle_angle_r	subtalar_angle_r	mtp_angle_r	hip_flexion_l	hip_adduction_l	hip_rotation_l	knee_angle_l	ankle_angle_l	subtalar_angle_l	mtp_angle_l	lumbar_extension	lumbar_bending	lumbar_rotation
      3.97000000	    -16.90151203	     -3.86309215	      3.65456948	     -1.97517077	     -0.04109056	     -0.36125304	     43.79730403	      0.53689908	    -19.28471875	    -12.88003317	     -1.07702718	     -1.52440432	     21.05625355	     -2.12075409	     -3.90756275	     -4.93967684	    -15.40743253	      8.05857268	     11.61567680	      8.64250213	     21.46055497	     -0.54351971	    -22.84707450
      3.97500000	    -16.83457526	     -4.12710624	      3.79113408	     -1.96720981	     -0.04211370	     -0.36098402	     43.89222433	      0.61696824	    -19.38215974	    -13.77680154	     -1.75676090	     -2.47818410	     21.01108217	     -2.35413170	     -4.33364108	     -4.77259663	    -16.02269104	      7.62730434	     11.88373308	      8.63540086	     21.49642475	     -0.27373255	    -23.09700962
      3.98000000	    -16.79672908	     -4.40221177	      3.85742860	     -1.95918655	     -0.04314229	     -0.36056871	     44.02221023	      0.78428551	    -19.24300507	    -14.70880715	     -2.62251806	     -3.86045667	     20.89597070	     -2.54359848	     -4.78295136	     -4.73146895	    -16.66818644	      7.12987848	     12.19275686	      8.71916682	     21.57289334	      0.02380927	    -23.28236617
      3.98500000	    -16.78272364	     -4.66804220	      3.84130616	     -1.95106251	     -0.04415288	     -0.36002657	     44.19382322	      1.01540265	    -18.95585845	    -15.70713168	     -3.56631338	     -5.44285797	     20.66274144	     -2.70389317	     -5.23117026	     -4.85713886	    -17.33308751	      6.50037531	     12.51797353	      8.92639085	     21.68794331	      0.33554643	    -23.41288279
      3.99000000	    -16.78075759	     -4.94176593	      3.77869656	     -1.94305426	     -0.04516471	     -0.35943837	     44.42517272	      1.28567936	    -18.57415835	    -16.80947827	     -4.57165906	     -7.08646024	     20.18202205	     -2.79875908	     -5.69156040	     -5.02274981	    -18.07830734	      5.85089097	     12.82957183	      9.36642650	     21.79118762	      0.68522918	    -23.44333010
      3.99500000	    -16.80489617	     -5.24653255	      3.77034714	     -1.93500897	     -0.04609582	     -0.35890523	     44.68371750	      1.55273953	    -18.19370947	    -17.95777325	     -5.52228508	     -8.75613820	     19.45003778	     -2.81364577	     -6.18434088	     -5.10180962	    -18.87114876	      5.06355596	     13.05298375	      9.88888264	     21.93110104	      1.03458189	    -23.59447548
      4.00000000	    -16.84026915	     -5.53996839	      3.72388072	     -1.92698904	     -0.04699569	     -0.35827190	     44.98693579	      1.85564368	    -17.69976914	    -19.19753793	     -6.37939263	    -10.40671368	     18.24882463	     -2.78210206	     -6.67969325	     -5.24175702	    -19.70451145	      4.16690725	     13.32252401	     10.67843673	     22.07514699	      1.38278715	    -23.68623961
      4.00500000	    -16.88184246	     -5.83341650	      3.69464299	     -1.91891321	     -0.04781527	     -0.35760332	     45.29784062	      2.16916824	    -17.16641910	    -20.49141118	     -7.03173806	    -11.93481836	     16.55614801	     -2.69871082	     -7.18952302	     -5.40171414	    -20.57543925	      3.07954844	     13.56695436	     11.70285948	     22.23638039	      1.70895878	    -23.82297548
      4.01000000	    -16.87652272	     -6.13080543	      3.73325355	     -1.91099078	     -0.04852284	     -0.35700974	     45.56149200	      2.46144050	    -16.57646735	    -21.82732999	     -7.43052184	    -13.18857320	     14.35546321	     -2.55958581	     -7.71372803	     -5.51585282	    -21.55483093	      1.86455902	     13.69194800	     13.02417919	     22.31900101	      2.01681439	    -24.08028171
      4.01500000	    -16.93750610	     -6.51281934	      3.70833927	     -1.90293080	     -0.04925106	     -0.35645242	     45.85457406	      2.87056783	    -16.03950557	    -23.06267405	     -7.79176888	    -14.50748275	     13.08309866	     -2.30907257	     -8.31332516	     -5.64931313	    -22.64826980	      0.64627954	     13.75728388	     13.78132045	     22.50305157	      2.44143770	    -24.29054899
      4.02000000	    -16.88430249	     -6.79442744	      3.74654341	     -1.89508727	     -0.04976172	     -0.35580771	     46.05085056	      3.18619972	    -15.50704535	    -24.41689842	     -7.79404173	    -15.35441446	     10.38953498	     -2.11270022	     -8.84237658	     -5.75524609	    -23.70729254	     -0.93740478	     13.75638754	     15.71267686	     22.51774956	      2.73037915	    -24.49680143
      4.02500000	    -16.92620655	     -7.15389968	      3.72123125	     -1.88716342	     -0.05035915	     -0.35516530	     46.29219866	      3.60626420	    -15.06132960	    -25.62308407	     -7.80632987	    -16.33625005	      8.88008821	     -1.73687105	     -9.45902619	     -5.97646203	    -24.95491428	     -2.46725578	     13.81920619	     16.86827507	     22.65298724	      3.12251889	    -24.67447010
      4.03000000	    -16.92152483	     -7.50509935	      3.76458353	     -1.87925085	     -0.05082064	     -0.35455569	     46.43095447	      3.99857650	    -14.66104991	    -26.78024171	     -7.54152282	    -17.07591107	      6.95243666	     -1.35306297	    -10.07367659	     -6.08346114	    -26.18505066	     -4.26157651	     13.70525030	     18.61286359	     22.74014489	      3.47014290	    -24.96952498
      4.03500000	    -16.85262440	     -7.81259383	      3.85166905	     -1.87149389	     -0.05115515	     -0.35400713	     46.46837382	      4.32512664	    -14.37598171	    -27.88391691	     -7.11917221	    -17.65560145	      5.20063479	     -0.95037370	    -10.63879004	     -6.10516847	    -27.48939777	     -6.19980094	     13.47791666	     20.33740174	     22.73294187	      3.76645659	    -25.27299509
      4.04000000	    -16.78762894	     -8.13598364	      3.88642296	     -1.86368457	     -0.05143967	     -0.35349030	     46.44700915	      4.68744725	    -14.20321944	    -28.89062430	     -6.55549565	    -18.02121723	      3.59896512	     -0.51247926	    -11.21206031	     -6.19067921	    -28.82130350	     -8.29556507	     13.04187512	     22.08239633	     22.73688683	      4.11198729	    -25.50714837
      4.04500000	    -16.73220397	     -8.45560086	      3.95600090	     -1.85601244	     -0.05168506	     -0.35297147	     46.37765042	      5.03112437	    -14.07563331	    -29.78125030	     -5.92830840	    -18.35005591	      2.34649727	      0.03502578	    -11.78553359	     -6.20488988	    -30.25720979	    -10.43963898	     12.60024516	     23.63848715	     22.73410269	      4.43147625	    -25.79493227
      4.05000000	    -16.68709158	     -8.77600656	      4.03720091	     -1.84843741	     -0.05188545	     -0.35247128	     46.26246870	      5.36017130	    -14.04287915	    -30.56507228	     -5.24003013	    -18.58589518	      1.36816319	      0.67050102	    -12.35280397	     -6.16941974	    -31.76459336	    -12.63795785	     12.06540788	     25.03829837	     22.73125041	      4.74617201	    -26.08577264
      4.05500000	    -16.63744571	     -9.08883813	      4.16166133	     -1.84105302	     -0.05203022	     -0.35201484	     46.09399407	      5.65109578	    -14.08800568	    -31.24335427	     -4.54164579	    -18.80241355	      0.72547262	      1.40448098	    -12.89771379	     -6.03800006	    -33.37890903	    -14.80458870	     11.45580093	     26.04297390	     22.69868782	      5.03337686	    -26.43234190
      4.06000000	    -16.56493613	     -9.41782181	      4.14338241	     -1.83355727	     -0.05210206	     -0.35150355	     45.81481294	      6.06161539	    -14.10319921	    -31.75833476	     -3.85788821	    -19.02018898	      0.63576704	      2.09067629	    -13.45028964	     -6.05748927	    -35.04098567	    -16.87841514	     10.82040895	     26.10511704	     22.65270924	      5.41888760	    -26.55935433
      4.06500000	    -16.63555709	     -9.71345956	      4.22288003	     -1.82625961	     -0.05223661	     -0.35100037	     45.67902843	      6.33439602	    -14.27208402	    -32.30174776	     -2.99010286	    -18.85732158	     -0.25898183	      3.02304633	    -13.94236786	     -5.86057450	    -36.62581132	    -19.12674447	      9.85603857	     27.75911583	     22.74226611	      5.69024886	    -26.80403028
      4.07000000	    -16.56233599	    -10.05750305	      4.22725009	     -1.81900660	     -0.05219152	     -0.35046472	     45.30680905	      6.75647767	    -14.35106708	    -32.63147590	     -2.30449217	    -19.00267301	     -0.28036499	      3.83203154	    -14.49051795	     -5.77695691	    -38.36930418	    -20.99229605	      9.02941508	     27.64044898	     22.66941091	      6.06810991	    -26.96028103
      4.07500000	    -16.61998204	    -10.36868335	      4.35048258	     -1.81197840	     -0.05219152	     -0.35012824	     45.06495454	      6.99602805	    -14.65516632	    -32.95996906	     -1.53263401	    -18.87003773	     -0.41181965	      4.90482123	    -14.93353758	     -5.41536773	    -40.15525775	    -22.73839779	      8.03598585	     27.72861855	     22.72232811	      6.35270917	    -27.21644042
      4.08000000	    -16.62276478	    -10.70985789	      4.29348859	     -1.80488044	     -0.05211169	     -0.34959703	     44.70029041	      7.43679198	    -14.75748519	    -33.15476588	     -0.84238214	    -18.80948215	     -0.42361191	      5.85812581	    -15.44054946	     -5.31707139	    -41.92987642	    -24.20725859	      6.98570318	     27.56736739	     22.71257865	      6.75408594	    -27.25943221
      4.08500000	    -16.73572008	    -10.98223602	      4.35019279	     -1.79795099	     -0.05203090	     -0.34921974	     44.43909070	      7.69131130	    -15.00442946	    -33.34308589	     -0.09424990	    -18.60308807	     -0.48416373	      7.02925357	    -15.79255935	     -4.94679356	    -43.73100509	    -25.47731610	      5.83872423	     27.26512861	     22.81242360	      7.02056818	    -27.39419347
      4.09000000	    -16.87284604	    -11.25798417	      4.30487532	     -1.79103784	     -0.05195359	     -0.34876811	     44.17208208	      8.02292890	    -15.16239151	    -33.47247271	      0.62777140	    -18.33872182	     -0.54971879	      8.21565204	    -16.15248091	     -4.70575319	    -45.56246092	    -26.35494028	      4.70733431	     26.55663047	     22.92822135	      7.33412480	    -27.40785434
      4.09500000	    -16.97804565	    -11.51304652	      4.25530721	     -1.78414988	     -0.05173298	     -0.34833745	     43.83084702	      8.35222605	    -15.31322695	    -33.52421620	      1.28396702	    -18.12521288	     -0.52109455	      9.37812468	    -16.47030287	     -4.45970675	    -47.37173761	    -26.94737117	      3.54765688	     25.56015459	     23.00810049	      7.63396493	    -27.37149181
      4.10000000	    -17.02228442	    -11.73394878	      4.21269821	     -1.77730183	     -0.05133869	     -0.34791839	     43.38623205	      8.67982358	    -15.41034569	    -33.49839587	      1.85995736	    -18.03901584	     -0.45049685	     10.46726609	    -16.72833454	     -4.20552405	    -49.09500109	    -27.30933903	      2.22560249	     24.80338566	     23.01982999	      7.90376853	    -27.29542434
      4.10500000	    -17.12914955	    -11.91176584	      4.12819605	     -1.77046971	     -0.05092891	     -0.34749461	     42.98587261	      8.98010274	    -15.47249400	    -33.44801688	      2.43367535	    -17.85873788	     -0.33214576	     11.61950086	    -16.92353209	     -3.99220039	    -50.79600017	    -27.34700528	      0.94440363	     23.79235045	     23.09235003	      8.14175197	    -27.16166826
      4.11000000	    -17.28758393	    -12.04210091	      3.96388184	     -1.76367451	     -0.05051214	     -0.34703167	     42.62335216	      9.27433092	    -15.45944579	    -33.38235279	      2.99563476	    -17.55598368	     -0.13073408	     12.81340463	    -17.06800141	     -3.86298798	    -52.51173408	    -26.94705921	     -0.06607575	     22.09262797	     23.20413881	      8.36629439	    -26.92063268
